<?xml version="1.0" encoding="UTF-8" standalone="no"?>
<!DOCTYPE svg PUBLIC "-//W3C//DTD SVG 1.1//EN" "http://www.w3.org/Graphics/SVG/1.1/DTD/svg11.dtd">
<svg xmlns="http://www.w3.org/2000/svg" version="1.1" viewBox="0.00 0.00 285.00 77.00">
<path fill="#141414" d="
  M 156.53 35.79
  C 160.99 30.48 168.22 28.89 174.68 31.15
  C 183.77 34.33 187.18 44.88 185.99 53.75
  C 184.66 63.57 177.28 68.75 167.80 69.23
  Q 167.35 69.25 167.43 68.80
  Q 167.46 68.63 167.48 68.48
  Q 167.57 68.01 168.00 67.83
  Q 172.81 65.82 173.70 59.73
  C 174.86 51.78 176.52 33.72 164.75 33.49
  C 158.59 33.37 155.81 38.22 155.73 43.75
  C 155.63 51.26 153.83 65.56 163.27 67.66
  A 0.97 0.97 0.0 0 1 164.00 68.45
  L 164.06 68.80
  A 0.34 0.34 0.0 0 1 163.71 69.19
  Q 158.31 68.99 154.15 65.64
  A 1.08 1.08 0.0 0 0 152.82 65.62
  Q 150.05 67.71 146.67 68.50
  A 0.97 0.97 0.0 0 1 145.47 67.56
  Q 145.46 42.57 145.44 17.24
  Q 145.44 13.13 141.59 12.27
  Q 141.03 12.15 141.08 11.58
  Q 141.17 10.64 142.26 10.44
  Q 148.53 9.26 154.92 7.82
  A 0.67 0.67 0.0 0 1 155.73 8.47
  L 155.75 35.51
  Q 155.75 36.73 156.53 35.79
  Z"
/>
<path fill="#141414" d="
  M 216.05 10.37
  C 220.26 9.94 224.72 8.63 228.96 7.84
  Q 229.50 7.74 229.50 8.29
  Q 229.48 34.80 229.41 61.24
  Q 229.40 65.56 232.04 67.16
  Q 234.37 68.58 231.75 68.57
  L 216.81 68.54
  Q 214.71 68.53 216.30 67.15
  L 217.98 65.69
  Q 218.37 65.35 218.47 64.85
  Q 219.09 61.68 219.10 56.75
  Q 219.13 36.87 219.06 16.99
  Q 219.05 13.15 215.15 12.23
  A 0.63 0.62 -75.3 0 1 214.70 11.45
  Q 215.00 10.48 216.05 10.37
  Z"
/>
<path fill="#141414" d="
  M 237.53 10.58
  L 251.01 7.84
  Q 251.54 7.73 251.54 8.27
  Q 251.63 43.31 251.55 58.50
  C 251.54 61.66 251.54 65.28 254.36 67.24
  Q 256.25 68.56 254.00 68.56
  L 239.00 68.54
  Q 236.18 68.54 238.55 67.22
  C 241.29 65.70 241.23 62.01 241.23 58.41
  Q 241.26 38.36 241.24 18.31
  C 241.23 15.21 240.88 13.19 237.73 12.36
  Q 236.41 12.00 237.27 10.75
  A 0.40 0.38 10.4 0 1 237.53 10.58
  Z"
/>
<circle fill="#141414" cx="268.15" cy="17.94" r="5.60"/>
<circle fill="#141414" cx="14.65" cy="17.96" r="5.62"/>
<circle fill="#141414" cx="200.40" cy="17.97" r="5.62"/>
<path fill="#141414" d="
  M 44.81 66.56
  Q 45.55 67.07 46.12 67.68
  A 0.52 0.52 0.0 0 1 45.73 68.55
  L 30.25 68.54
  Q 27.33 68.54 29.89 67.11
  Q 32.23 65.79 32.26 61.75
  Q 32.36 50.87 32.05 40.01
  C 31.96 36.68 30.22 36.23 28.20 34.63
  A 0.74 0.73 -32.5 0 1 28.49 33.34
  L 41.93 30.22
  Q 42.60 30.07 42.60 30.75
  Q 42.44 45.38 42.55 59.50
  C 42.57 62.22 42.63 65.06 44.81 66.56
  Z"
/>
<path fill="#141414" d="
  M 54.04 65.77
  Q 55.31 63.68 55.34 60.25
  Q 55.38 52.03 55.32 43.83
  Q 55.29 40.21 54.53 38.81
  C 53.00 35.99 48.58 35.16 46.03 37.32
  A 0.39 0.39 0.0 0 1 45.53 37.32
  L 45.13 37.00
  Q 44.31 36.32 45.11 35.61
  Q 46.66 34.21 47.67 33.15
  Q 48.79 31.96 49.95 31.44
  C 55.40 28.99 62.24 29.70 64.59 35.22
  C 67.47 41.97 63.14 64.02 68.38 67.17
  Q 70.74 68.58 68.00 68.57
  L 52.26 68.52
  A 0.47 0.47 0.0 0 1 51.90 67.76
  C 52.53 66.99 53.53 66.61 54.04 65.77
  Z"
/>
<path fill="#141414" d="
  M 75.92 67.05
  Q 78.33 64.88 78.39 62.20
  Q 78.69 49.94 78.41 41.58
  C 78.25 36.69 73.21 34.66 69.31 37.11
  A 1.13 1.11 -42.7 0 1 68.07 37.07
  Q 67.69 36.80 67.75 36.22
  Q 67.79 35.86 68.12 35.49
  C 72.52 30.64 78.65 28.15 84.46 31.28
  Q 88.33 33.36 88.70 39.01
  Q 88.95 42.85 88.82 57.63
  C 88.79 61.57 88.58 64.70 91.70 67.37
  Q 93.09 68.55 91.26 68.55
  L 76.49 68.55
  Q 74.25 68.56 75.92 67.05
  Z"
/>
<path fill="#141414" d="
  M 7.99 66.46
  Q 10.38 64.42 10.27 61.27
  C 10.02 54.22 10.31 47.08 10.17 40.00
  Q 10.09 36.44 8.16 35.76
  Q 3.24 34.05 8.24 32.93
  L 20.21 30.25
  A 0.26 0.25 83.7 0 1 20.52 30.50
  Q 20.51 44.72 20.56 59.00
  Q 20.57 62.95 21.65 65.71
  A 1.20 1.18 88.7 0 0 22.35 66.39
  Q 23.43 66.78 23.96 67.77
  A 0.54 0.54 0.0 0 1 23.48 68.56
  L 7.49 68.55
  A 0.49 0.48 8.0 0 1 7.02 67.94
  Q 7.28 67.06 7.99 66.46
  Z"
/>
<path fill="#141414" d="
  M 114.49 31.65
  C 110.92 32.68 110.06 36.16 109.69 39.68
  Q 108.34 52.60 110.02 62.65
  Q 110.70 66.72 114.54 67.78
  Q 115.07 67.93 115.08 68.47
  L 115.09 68.81
  A 0.31 0.30 2.5 0 1 114.75 69.12
  C 91.50 66.87 90.98 33.40 113.38 30.34
  Q 113.45 30.33 114.11 30.14
  Q 114.60 30.00 114.90 30.37
  A 0.81 0.80 -27.5 0 1 114.49 31.65
  Z"
/>
<path fill="#141414" d="
  M 118.82 67.77
  C 123.01 66.85 123.91 62.28 124.24 58.51
  Q 125.29 46.52 123.42 36.49
  Q 122.81 33.20 119.56 31.85
  Q 118.98 31.61 118.81 31.31
  Q 118.66 31.05 118.71 30.78
  Q 118.80 30.24 119.35 30.29
  C 133.07 31.52 140.01 45.07 135.27 57.46
  Q 131.30 67.81 118.77 69.22
  Q 118.52 69.24 118.53 68.99
  L 118.55 68.09
  Q 118.55 67.82 118.82 67.77
  Z"
/>
<path fill="#141414" d="
  M 208.25 66.51
  Q 209.28 66.75 209.66 67.69
  A 0.65 0.65 0.0 0 1 209.06 68.58
  L 194.00 68.54
  Q 191.57 68.54 193.64 67.14
  C 195.31 66.02 195.94 63.47 195.98 61.30
  Q 196.18 50.65 195.96 40.00
  C 195.88 36.44 193.85 36.44 191.81 34.44
  A 0.66 0.66 0.0 0 1 192.12 33.33
  L 205.76 30.25
  A 0.43 0.42 83.6 0 1 206.28 30.67
  Q 206.34 45.11 206.35 59.25
  Q 206.35 63.28 207.47 65.86
  A 1.15 1.14 84.6 0 0 208.25 66.51
  Z"
/>
<path fill="#141414" d="
  M 262.38 66.05
  Q 263.76 64.05 263.77 62.00
  Q 263.87 51.00 263.73 40.00
  C 263.69 36.90 261.61 36.07 259.55 34.47
  A 0.50 0.50 0.0 0 1 259.51 33.72
  Q 260.03 33.21 260.75 33.06
  Q 267.12 31.66 273.54 30.31
  Q 274.04 30.20 274.04 30.72
  Q 274.04 44.38 274.10 58.25
  Q 274.12 62.82 275.17 65.82
  A 0.99 0.99 0.0 0 0 275.83 66.44
  Q 276.92 66.77 277.48 67.75
  A 0.55 0.55 0.0 0 1 277.00 68.57
  L 260.97 68.54
  Q 260.36 68.54 260.49 67.95
  Q 260.69 66.99 261.58 66.67
  Q 262.08 66.49 262.38 66.05
  Z"
/>
</svg>
